HIERARCHY
ROOT Hips
{
    OFFSET 0.000000 0.000000 0.000000
    CHANNELS 6 Xposition Yposition Zposition Zrotation Xrotation Yrotation
        JOINT Chest
        {
            OFFSET -0.000000 32.910728 -0.000000
            CHANNELS 3 Zrotation Xrotation Yrotation
            JOINT Neck
            {
                OFFSET -0.000000 24.872103 0.000000
                CHANNELS 3 Zrotation Xrotation Yrotation
                JOINT Head
                {
                    OFFSET -0.000000 10.694444 0.000000
                    CHANNELS 3 Zrotation Xrotation Yrotation
                    End Site
                    {
                        OFFSET -0.000000 16.527781 0.000000
                    }
                }
            }
            JOINT LeftCollar
            {
                OFFSET -0.000000 24.872103 0.000000
                CHANNELS 3 Zrotation Xrotation Yrotation
                JOINT LeftShoulder
                {
                    OFFSET 20.500000 -0.000000 0.000000
                    CHANNELS 3 Zrotation Xrotation Yrotation
                    JOINT LeftElbow
                    {
                        OFFSET 20.261999 0.000000 0.000000
                        CHANNELS 3 Zrotation Xrotation Yrotation
                        JOINT LeftWrist
                        {
                            OFFSET 25.372869 0.000000 0.000000
                            CHANNELS 3 Zrotation Xrotation Yrotation
                            End Site
                            {
                                OFFSET 0.000000 -14.583331 0.000000
                            }
                        }
                    }
                }
            }
            JOINT RightCollar
            {
                OFFSET -0.000000 24.872103 0.000000
                CHANNELS 3 Zrotation Xrotation Yrotation
                JOINT RightShoulder
                {
                    OFFSET -20.500000 0.000000 0.000000
                    CHANNELS 3 Zrotation Xrotation Yrotation
                    JOINT RightElbow
                    {
                        OFFSET -20.261999 0.000000 0.000000
                        CHANNELS 3 Zrotation Xrotation Yrotation
                        JOINT RightWrist
                        {
                            OFFSET -25.372869 0.000000 0.000000
                            CHANNELS 3 Zrotation Xrotation Yrotation
                            End Site
                            {
                                OFFSET -0.000000 -14.583331 0.000000
                            }
                        }
                    }
                }
            }
        }
    JOINT LeftHip
    {
        OFFSET 11.666668 0.000000 0.000000
        CHANNELS 3 Zrotation Xrotation Yrotation
        JOINT LeftKnee
        {
            OFFSET -0.000000 -37.459236 0.000000
            CHANNELS 3 Zrotation Xrotation Yrotation
            JOINT LeftAnkle
            {
                OFFSET -0.000000 -38.972313 0.000000
                CHANNELS 3 Zrotation Xrotation Yrotation
                End Site
                {
                    OFFSET -0.000000 -4.861111 16.527781
                }
            }
        }
    }
    JOINT RightHip
    {
        OFFSET -11.666668 0.000000 0.000000
        CHANNELS 3 Zrotation Xrotation Yrotation
        JOINT RightKnee
        {
            OFFSET -0.000000 -37.459236 0.000000
            CHANNELS 3 Zrotation Xrotation Yrotation
            JOINT RightAnkle
            {
                OFFSET -0.000000 -38.972313 0.000000
                CHANNELS 3 Zrotation Xrotation Yrotation
                End Site
                {
                    OFFSET -0.000000 -4.861111 16.527781
                }
            }
        }
    }
}
MOTION
Frames:    5
Frame Time:    0.010000
14.127268    84.933922    -19.088810    2.670186    1.148101    -25.111099    1.590864    15.297816    -1.574052    4.235625    -11.030480    5.031235    -7.204493    -8.370400    4.144378    -28.770166    -0.449581    1.861834    39.566910    63.934330    -97.667305    61.195187    -21.033800    -34.887417    101.694725    32.181774    75.369743    27.315390    -4.750430    -19.262495    -8.631854    56.048012    61.671680    -1.076653    -0.711898    65.468697    -139.332886    -3.772283    -8.938366    8.958164    -20.874352    3.619860    -1.135786    42.054619    4.405418    -8.639114    2.301800    6.028813    -7.034386    -13.915009    -6.804806    3.248597    35.850014    -8.029259    4.074273    -18.484043    0.504930    
14.201826    84.796669    -19.004425    2.523130    1.044477    -25.346008    1.539388    15.564404    -1.779540    4.373892    -11.006317    5.574198    -7.897262    -8.678474    4.558084    -29.015114    -0.520846    2.192097    35.144363    64.062889    -93.036758    60.233589    -21.092106    -36.444412    102.226089    32.400589    74.742470    27.477268    -4.670046    -18.439772    -9.041841    56.315941    61.923378    -0.967837    -0.599370    65.524559    -139.648605    -3.579016    -8.871643    9.087026    -20.930786    4.009908    -1.012747    42.648640    4.085618    -8.569586    1.882406    6.125329    -7.152210    -14.157682    -7.095827    3.191607    36.595753    -7.674596    4.345919    -18.849850    0.786358    
14.266234    84.700874    -18.902130    2.484725    0.917343    -25.614323    1.496418    15.599960    -1.642388    4.444366    -10.663920    5.669179    -8.011258    -8.974942    4.624521    -29.012457    -0.583347    2.447943    37.941051    63.833210    -95.986313    60.672581    -21.136013    -35.066715    101.913246    31.455864    74.595070    27.517532    -4.590155    -18.320145    -9.280659    56.307621    62.171677    -0.927706    -0.594030    65.277855    -139.909531    -3.544119    -8.998412    9.126089    -20.758276    4.047107    -1.297883    42.810726    4.353556    -8.637735    1.698151    6.261948    -7.225321    -14.281419    -7.455793    2.731976    37.066715    -7.073313    4.445251    -19.064194    1.033450    
14.318784    84.633568    -18.833170    2.439671    0.836467    -25.802916    1.503815    15.696877    -1.657925    4.453486    -10.595934    5.709885    -8.024503    -9.055624    4.660359    -29.061388    -0.613406    2.369812    37.704945    63.907200    -95.783615    60.597374    -20.993114    -35.084522    101.869804    31.428244    74.757622    27.583038    -4.565179    -18.320210    -9.502833    56.227242    62.407177    -0.971542    -0.622195    65.119102    -139.990860    -3.500584    -9.064829    9.166252    -20.696920    4.162495    -1.391091    43.034084    4.412017    -8.641150    1.499762    6.322201    -7.316510    -14.404267    -7.666193    2.558514    37.467518    -6.701152    4.535318    -19.255880    1.165427    
14.378844    84.564545    -18.754742    2.400242    0.749742    -26.016861    1.500805    15.795739    -1.676935    4.462919    -10.510250    5.781802    -8.018440    -9.143100    4.729149    -29.106354    -0.595454    2.332227    37.434116    63.928696    -95.549088    60.488186    -20.887300    -35.083183    101.825333    31.282429    74.833267    27.639637    -4.542167    -18.280762    -9.721230    56.181992    62.628105    -0.937972    -0.631270    64.984161    -140.185013    -3.450035    -9.142673    9.201820    -20.619970    4.272872    -1.511151    43.258049    4.512568    -8.656209    1.285106    6.374550    -7.428007    -14.537008    -7.878663    2.378842    37.890640    -6.285676    4.617517    -19.457504    1.283921    
